<mxfile host="app.diagrams.net" modified="2023-12-01T15:58:39.892Z" agent="Mozilla/5.0 (Windows NT 10.0; Win64; x64) AppleWebKit/537.36 (KHTML, like Gecko) Chrome/119.0.0.0 Safari/537.36" etag="0n9grkGVeXUH6hwwB7MT" version="22.1.5" type="github">
  <diagram name="Page-1" id="B1-M0VtPiLkOB3PfmhQX">
    <mxGraphModel dx="1243" dy="1833" grid="1" gridSize="10" guides="1" tooltips="1" connect="1" arrows="1" fold="1" page="1" pageScale="1" pageWidth="850" pageHeight="1100" math="0" shadow="0">
      <root>
        <mxCell id="0" />
        <mxCell id="1" parent="0" />
        <mxCell id="nS56ixaqPu7XCqhBpNex-61" value="" style="rounded=0;whiteSpace=wrap;html=1;" vertex="1" parent="1">
          <mxGeometry x="240" y="-20" width="550" height="400" as="geometry" />
        </mxCell>
        <mxCell id="nS56ixaqPu7XCqhBpNex-80" value="" style="rounded=0;whiteSpace=wrap;html=1;" vertex="1" parent="1">
          <mxGeometry x="290" y="550" width="630" height="430" as="geometry" />
        </mxCell>
        <mxCell id="nS56ixaqPu7XCqhBpNex-2" value="Người dùng" style="shape=umlActor;verticalLabelPosition=bottom;verticalAlign=top;html=1;outlineConnect=0;" vertex="1" parent="1">
          <mxGeometry x="140" y="685" width="30" height="60" as="geometry" />
        </mxCell>
        <mxCell id="nS56ixaqPu7XCqhBpNex-3" value="Quản lý nhân viên" style="ellipse;whiteSpace=wrap;html=1;" vertex="1" parent="1">
          <mxGeometry x="410" y="1650" width="140" height="70" as="geometry" />
        </mxCell>
        <mxCell id="nS56ixaqPu7XCqhBpNex-5" value="Thêm nhân viên" style="ellipse;whiteSpace=wrap;html=1;" vertex="1" parent="1">
          <mxGeometry x="760" y="1560" width="140" height="70" as="geometry" />
        </mxCell>
        <mxCell id="nS56ixaqPu7XCqhBpNex-6" value="Thay đổi thông tin nhân viên" style="ellipse;whiteSpace=wrap;html=1;" vertex="1" parent="1">
          <mxGeometry x="580" y="1570" width="140" height="70" as="geometry" />
        </mxCell>
        <mxCell id="nS56ixaqPu7XCqhBpNex-7" value="&amp;lt;&amp;lt;extend&amp;gt;&amp;gt;" style="html=1;verticalAlign=bottom;labelBackgroundColor=none;endArrow=open;endFill=0;dashed=1;rounded=0;entryX=1;entryY=0.5;entryDx=0;entryDy=0;exitX=0;exitY=0.5;exitDx=0;exitDy=0;" edge="1" parent="1" target="nS56ixaqPu7XCqhBpNex-81">
          <mxGeometry width="160" relative="1" as="geometry">
            <mxPoint x="545" y="120" as="sourcePoint" />
            <mxPoint x="415.00000000000387" y="110" as="targetPoint" />
          </mxGeometry>
        </mxCell>
        <mxCell id="nS56ixaqPu7XCqhBpNex-8" value="&amp;lt;&amp;lt;extend&amp;gt;&amp;gt;" style="html=1;verticalAlign=bottom;labelBackgroundColor=none;endArrow=open;endFill=0;dashed=1;rounded=0;entryX=1;entryY=0.5;entryDx=0;entryDy=0;exitX=0;exitY=0.5;exitDx=0;exitDy=0;" edge="1" parent="1" source="nS56ixaqPu7XCqhBpNex-6" target="nS56ixaqPu7XCqhBpNex-3">
          <mxGeometry width="160" relative="1" as="geometry">
            <mxPoint x="680" y="945" as="sourcePoint" />
            <mxPoint x="490" y="905" as="targetPoint" />
          </mxGeometry>
        </mxCell>
        <mxCell id="nS56ixaqPu7XCqhBpNex-9" value="Tạo tài khoản đăng nhập" style="ellipse;whiteSpace=wrap;html=1;" vertex="1" parent="1">
          <mxGeometry x="1010" y="1560" width="140" height="70" as="geometry" />
        </mxCell>
        <mxCell id="nS56ixaqPu7XCqhBpNex-10" value="&amp;lt;&amp;lt;include&amp;gt;&amp;gt;" style="html=1;verticalAlign=bottom;labelBackgroundColor=none;endArrow=open;endFill=0;dashed=1;rounded=0;entryX=0;entryY=0.5;entryDx=0;entryDy=0;exitX=1;exitY=0.5;exitDx=0;exitDy=0;" edge="1" parent="1" source="nS56ixaqPu7XCqhBpNex-5" target="nS56ixaqPu7XCqhBpNex-9">
          <mxGeometry width="160" relative="1" as="geometry">
            <mxPoint x="550" y="910" as="sourcePoint" />
            <mxPoint x="710" y="910" as="targetPoint" />
          </mxGeometry>
        </mxCell>
        <mxCell id="nS56ixaqPu7XCqhBpNex-11" value="Reset mật khẩu" style="ellipse;whiteSpace=wrap;html=1;" vertex="1" parent="1">
          <mxGeometry x="980" y="1780" width="140" height="70" as="geometry" />
        </mxCell>
        <mxCell id="nS56ixaqPu7XCqhBpNex-12" value="Gửi email reset mật khẩu" style="ellipse;whiteSpace=wrap;html=1;" vertex="1" parent="1">
          <mxGeometry x="1240" y="1790" width="140" height="70" as="geometry" />
        </mxCell>
        <mxCell id="nS56ixaqPu7XCqhBpNex-13" value="&amp;lt;&amp;lt;include&amp;gt;&amp;gt;" style="html=1;verticalAlign=bottom;labelBackgroundColor=none;endArrow=open;endFill=0;dashed=1;rounded=0;exitX=1;exitY=0.5;exitDx=0;exitDy=0;entryX=0;entryY=0.5;entryDx=0;entryDy=0;" edge="1" parent="1" source="nS56ixaqPu7XCqhBpNex-11" target="nS56ixaqPu7XCqhBpNex-12">
          <mxGeometry width="160" relative="1" as="geometry">
            <mxPoint x="750" y="1570" as="sourcePoint" />
            <mxPoint x="910" y="1570" as="targetPoint" />
          </mxGeometry>
        </mxCell>
        <mxCell id="nS56ixaqPu7XCqhBpNex-29" value="" style="rounded=0;whiteSpace=wrap;html=1;" vertex="1" parent="1">
          <mxGeometry x="170" y="1410" width="1010" height="320" as="geometry" />
        </mxCell>
        <mxCell id="nS56ixaqPu7XCqhBpNex-30" value="Quản lý kho" style="shape=umlActor;verticalLabelPosition=bottom;verticalAlign=top;html=1;outlineConnect=0;" vertex="1" parent="1">
          <mxGeometry x="120" y="1145" width="30" height="60" as="geometry" />
        </mxCell>
        <mxCell id="nS56ixaqPu7XCqhBpNex-38" value="" style="endArrow=none;html=1;rounded=0;exitX=0.5;exitY=0.5;exitDx=0;exitDy=0;exitPerimeter=0;entryX=0;entryY=0.5;entryDx=0;entryDy=0;" edge="1" parent="1" source="nS56ixaqPu7XCqhBpNex-30">
          <mxGeometry width="50" height="50" relative="1" as="geometry">
            <mxPoint x="300" y="1290" as="sourcePoint" />
            <mxPoint x="349.9999999999966" y="1205.0000000000002" as="targetPoint" />
          </mxGeometry>
        </mxCell>
        <mxCell id="nS56ixaqPu7XCqhBpNex-46" value="Quản lý nhân viên" style="ellipse;whiteSpace=wrap;html=1;" vertex="1" parent="1">
          <mxGeometry x="350" y="1170" width="140" height="70" as="geometry" />
        </mxCell>
        <mxCell id="nS56ixaqPu7XCqhBpNex-47" value="Thay đổi thông tin nhân viên" style="ellipse;whiteSpace=wrap;html=1;" vertex="1" parent="1">
          <mxGeometry x="590" y="1170" width="140" height="70" as="geometry" />
        </mxCell>
        <mxCell id="nS56ixaqPu7XCqhBpNex-48" value="&amp;lt;&amp;lt;extend&amp;gt;&amp;gt;" style="html=1;verticalAlign=bottom;labelBackgroundColor=none;endArrow=open;endFill=0;dashed=1;rounded=0;entryX=1;entryY=0.5;entryDx=0;entryDy=0;exitX=0;exitY=0.5;exitDx=0;exitDy=0;" edge="1" parent="1" source="nS56ixaqPu7XCqhBpNex-47" target="nS56ixaqPu7XCqhBpNex-46">
          <mxGeometry y="-5" width="160" relative="1" as="geometry">
            <mxPoint x="540" y="565" as="sourcePoint" />
            <mxPoint x="350" y="525" as="targetPoint" />
            <mxPoint as="offset" />
          </mxGeometry>
        </mxCell>
        <mxCell id="nS56ixaqPu7XCqhBpNex-49" value="Reset mật khẩu" style="ellipse;whiteSpace=wrap;html=1;" vertex="1" parent="1">
          <mxGeometry x="840" y="1145" width="140" height="70" as="geometry" />
        </mxCell>
        <mxCell id="nS56ixaqPu7XCqhBpNex-50" value="&amp;lt;&amp;lt;extend&amp;gt;&amp;gt;" style="html=1;verticalAlign=bottom;labelBackgroundColor=none;endArrow=open;endFill=0;dashed=1;rounded=0;exitX=0;exitY=0.5;exitDx=0;exitDy=0;entryX=1;entryY=0.5;entryDx=0;entryDy=0;" edge="1" parent="1" source="nS56ixaqPu7XCqhBpNex-49" target="nS56ixaqPu7XCqhBpNex-47">
          <mxGeometry width="160" relative="1" as="geometry">
            <mxPoint x="420" y="640" as="sourcePoint" />
            <mxPoint x="580" y="640" as="targetPoint" />
          </mxGeometry>
        </mxCell>
        <mxCell id="nS56ixaqPu7XCqhBpNex-51" value="Gửi email reset mật khẩu" style="ellipse;whiteSpace=wrap;html=1;" vertex="1" parent="1">
          <mxGeometry x="1080" y="1200" width="140" height="70" as="geometry" />
        </mxCell>
        <mxCell id="nS56ixaqPu7XCqhBpNex-52" value="&amp;lt;&amp;lt;include&amp;gt;&amp;gt;" style="html=1;verticalAlign=bottom;labelBackgroundColor=none;endArrow=open;endFill=0;dashed=1;rounded=0;exitX=1;exitY=0.5;exitDx=0;exitDy=0;entryX=0;entryY=0.5;entryDx=0;entryDy=0;" edge="1" parent="1" source="nS56ixaqPu7XCqhBpNex-49" target="nS56ixaqPu7XCqhBpNex-51">
          <mxGeometry width="160" relative="1" as="geometry">
            <mxPoint x="610" y="1190" as="sourcePoint" />
            <mxPoint x="770" y="1190" as="targetPoint" />
          </mxGeometry>
        </mxCell>
        <mxCell id="nS56ixaqPu7XCqhBpNex-58" value="" style="endArrow=none;html=1;rounded=0;entryX=0;entryY=0.5;entryDx=0;entryDy=0;" edge="1" parent="1" source="nS56ixaqPu7XCqhBpNex-2">
          <mxGeometry width="50" height="50" relative="1" as="geometry">
            <mxPoint x="630" y="840" as="sourcePoint" />
            <mxPoint x="349.9999999999966" y="735" as="targetPoint" />
          </mxGeometry>
        </mxCell>
        <mxCell id="nS56ixaqPu7XCqhBpNex-62" value="Người dùng" style="shape=umlActor;verticalLabelPosition=bottom;verticalAlign=top;html=1;outlineConnect=0;" vertex="1" parent="1">
          <mxGeometry x="80" y="95" width="30" height="60" as="geometry" />
        </mxCell>
        <mxCell id="nS56ixaqPu7XCqhBpNex-68" value="" style="endArrow=none;html=1;rounded=0;entryX=0;entryY=0.5;entryDx=0;entryDy=0;" edge="1" parent="1" source="nS56ixaqPu7XCqhBpNex-62">
          <mxGeometry width="50" height="50" relative="1" as="geometry">
            <mxPoint x="570" y="250" as="sourcePoint" />
            <mxPoint x="290" y="145" as="targetPoint" />
          </mxGeometry>
        </mxCell>
        <mxCell id="nS56ixaqPu7XCqhBpNex-77" value="Quên Mật Khẩu" style="ellipse;whiteSpace=wrap;html=1;" vertex="1" parent="1">
          <mxGeometry x="350" y="700" width="140" height="70" as="geometry" />
        </mxCell>
        <mxCell id="nS56ixaqPu7XCqhBpNex-78" value="Nhận email reset mật khẩu" style="ellipse;whiteSpace=wrap;html=1;" vertex="1" parent="1">
          <mxGeometry x="640" y="700" width="140" height="70" as="geometry" />
        </mxCell>
        <mxCell id="nS56ixaqPu7XCqhBpNex-79" value="&amp;lt;&amp;lt;include&amp;gt;&amp;gt;" style="html=1;verticalAlign=bottom;labelBackgroundColor=none;endArrow=open;endFill=0;dashed=1;rounded=0;entryX=0;entryY=0.5;entryDx=0;entryDy=0;exitX=1;exitY=0.5;exitDx=0;exitDy=0;" edge="1" parent="1" source="nS56ixaqPu7XCqhBpNex-77" target="nS56ixaqPu7XCqhBpNex-78">
          <mxGeometry width="160" relative="1" as="geometry">
            <mxPoint x="550" y="430" as="sourcePoint" />
            <mxPoint x="710" y="430" as="targetPoint" />
          </mxGeometry>
        </mxCell>
        <mxCell id="nS56ixaqPu7XCqhBpNex-81" value="Quản lý tài khoản cá nhân" style="ellipse;whiteSpace=wrap;html=1;" vertex="1" parent="1">
          <mxGeometry x="285" y="110" width="140" height="70" as="geometry" />
        </mxCell>
        <mxCell id="nS56ixaqPu7XCqhBpNex-83" value="Xem thông tin cá nhấn" style="ellipse;whiteSpace=wrap;html=1;" vertex="1" parent="1">
          <mxGeometry x="520" y="210" width="120" height="80" as="geometry" />
        </mxCell>
        <mxCell id="nS56ixaqPu7XCqhBpNex-84" value="Đổi Avatar" style="ellipse;whiteSpace=wrap;html=1;" vertex="1" parent="1">
          <mxGeometry x="550" y="75" width="120" height="80" as="geometry" />
        </mxCell>
        <mxCell id="nS56ixaqPu7XCqhBpNex-85" value="&amp;lt;&amp;lt;extend&amp;gt;&amp;gt;" style="html=1;verticalAlign=bottom;labelBackgroundColor=none;endArrow=open;endFill=0;dashed=1;rounded=0;entryX=1;entryY=0.5;entryDx=0;entryDy=0;exitX=0;exitY=0.5;exitDx=0;exitDy=0;" edge="1" parent="1">
          <mxGeometry y="-5" width="160" relative="1" as="geometry">
            <mxPoint x="600" y="1215" as="sourcePoint" />
            <mxPoint x="500" y="1215" as="targetPoint" />
            <mxPoint as="offset" />
          </mxGeometry>
        </mxCell>
        <mxCell id="nS56ixaqPu7XCqhBpNex-86" value="&amp;lt;&amp;lt;extend&amp;gt;&amp;gt;" style="html=1;verticalAlign=bottom;labelBackgroundColor=none;endArrow=open;endFill=0;dashed=1;rounded=0;exitX=0;exitY=0.5;exitDx=0;exitDy=0;entryX=1;entryY=0.5;entryDx=0;entryDy=0;" edge="1" parent="1">
          <mxGeometry width="160" relative="1" as="geometry">
            <mxPoint x="820" y="1250" as="sourcePoint" />
            <mxPoint x="710" y="1275" as="targetPoint" />
          </mxGeometry>
        </mxCell>
        <mxCell id="nS56ixaqPu7XCqhBpNex-87" value="&amp;lt;&amp;lt;extend&amp;gt;&amp;gt;" style="html=1;verticalAlign=bottom;labelBackgroundColor=none;endArrow=open;endFill=0;dashed=1;rounded=0;exitX=0;exitY=0.5;exitDx=0;exitDy=0;entryX=1;entryY=0.5;entryDx=0;entryDy=0;" edge="1" parent="1">
          <mxGeometry x="-0.1984" y="-72" width="160" relative="1" as="geometry">
            <mxPoint x="850" y="1190" as="sourcePoint" />
            <mxPoint x="740" y="1215" as="targetPoint" />
            <mxPoint x="1" as="offset" />
          </mxGeometry>
        </mxCell>
        <mxCell id="nS56ixaqPu7XCqhBpNex-88" value="&amp;lt;&amp;lt;extend&amp;gt;&amp;gt;" style="html=1;verticalAlign=bottom;labelBackgroundColor=none;endArrow=open;endFill=0;dashed=1;rounded=0;entryX=1;entryY=0.5;entryDx=0;entryDy=0;exitX=0;exitY=0;exitDx=0;exitDy=0;" edge="1" parent="1" source="nS56ixaqPu7XCqhBpNex-83" target="nS56ixaqPu7XCqhBpNex-81">
          <mxGeometry width="160" relative="1" as="geometry">
            <mxPoint x="565" y="180" as="sourcePoint" />
            <mxPoint x="435.00000000000387" y="170" as="targetPoint" />
          </mxGeometry>
        </mxCell>
      </root>
    </mxGraphModel>
  </diagram>
</mxfile>
